<?xml version="1.0" encoding="UTF-8" standalone="no"?>
<!DOCTYPE svg PUBLIC "-//W3C//DTD SVG 1.1//EN"
 "http://www.w3.org/Graphics/SVG/1.1/DTD/svg11.dtd">
<!-- Generated by graphviz version 2.36.0 (20140111.2315)
 -->
<!-- Title: controllers_diagram Pages: 1 -->
<svg width="1809pt" height="458pt"
 viewBox="0.00 0.00 1809.00 458.00" xmlns="http://www.w3.org/2000/svg" xmlns:xlink="http://www.w3.org/1999/xlink">
<g id="graph0" class="graph" transform="scale(1 1) rotate(0) translate(4 454)">
<title>controllers_diagram</title>
<polygon fill="none" stroke="none" points="-4,4 -4,-454 1805,-454 1805,4 -4,4"/>
<!-- UsersController -->
<g id="node1" class="node"><title>UsersController</title>
<path fill="none" stroke="black" d="M11.5,-23.5C11.5,-23.5 128.5,-23.5 128.5,-23.5 134.5,-23.5 140.5,-29.5 140.5,-35.5 140.5,-35.5 140.5,-194.5 140.5,-194.5 140.5,-200.5 134.5,-206.5 128.5,-206.5 128.5,-206.5 11.5,-206.5 11.5,-206.5 5.5,-206.5 -0.5,-200.5 -0.5,-194.5 -0.5,-194.5 -0.5,-35.5 -0.5,-35.5 -0.5,-29.5 5.5,-23.5 11.5,-23.5"/>
<text text-anchor="middle" x="70" y="-191.3" font-family="Times,serif" font-size="14.00">UsersController</text>
<polyline fill="none" stroke="black" points="-0.5,-183.5 140.5,-183.5 "/>
<text text-anchor="start" x="7.5" y="-168.3" font-family="Times,serif" font-size="14.00">get_id</text>
<text text-anchor="start" x="7.5" y="-153.3" font-family="Times,serif" font-size="14.00">index</text>
<text text-anchor="start" x="7.5" y="-138.3" font-family="Times,serif" font-size="14.00">show</text>
<text text-anchor="start" x="7.5" y="-123.3" font-family="Times,serif" font-size="14.00">update</text>
<text text-anchor="start" x="7.5" y="-108.3" font-family="Times,serif" font-size="14.00">vote</text>
<polyline fill="none" stroke="black" points="-0.5,-100.5 140.5,-100.5 "/>
<polyline fill="none" stroke="black" points="-0.5,-76.5 140.5,-76.5 "/>
<text text-anchor="start" x="7.5" y="-61.3" font-family="Times,serif" font-size="14.00">_layout</text>
<text text-anchor="start" x="7.5" y="-46.3" font-family="Times,serif" font-size="14.00">set_user</text>
<text text-anchor="start" x="7.5" y="-31.3" font-family="Times,serif" font-size="14.00">set_user_by_nickname</text>
</g>
<!-- CommentsController -->
<g id="node2" class="node"><title>CommentsController</title>
<path fill="none" stroke="black" d="M171,-38.5C171,-38.5 279,-38.5 279,-38.5 285,-38.5 291,-44.5 291,-50.5 291,-50.5 291,-179.5 291,-179.5 291,-185.5 285,-191.5 279,-191.5 279,-191.5 171,-191.5 171,-191.5 165,-191.5 159,-185.5 159,-179.5 159,-179.5 159,-50.5 159,-50.5 159,-44.5 165,-38.5 171,-38.5"/>
<text text-anchor="middle" x="225" y="-176.3" font-family="Times,serif" font-size="14.00">CommentsController</text>
<polyline fill="none" stroke="black" points="159,-168.5 291,-168.5 "/>
<text text-anchor="start" x="167" y="-153.3" font-family="Times,serif" font-size="14.00">create</text>
<text text-anchor="start" x="167" y="-138.3" font-family="Times,serif" font-size="14.00">destroy</text>
<text text-anchor="start" x="167" y="-123.3" font-family="Times,serif" font-size="14.00">index</text>
<polyline fill="none" stroke="black" points="159,-115.5 291,-115.5 "/>
<polyline fill="none" stroke="black" points="159,-91.5 291,-91.5 "/>
<text text-anchor="start" x="167" y="-76.3" font-family="Times,serif" font-size="14.00">_layout</text>
<text text-anchor="start" x="167" y="-61.3" font-family="Times,serif" font-size="14.00">comment_params</text>
<text text-anchor="start" x="167" y="-46.3" font-family="Times,serif" font-size="14.00">set_video</text>
</g>
<!-- Admin::UsersController -->
<g id="node3" class="node"><title>Admin::UsersController</title>
<path fill="none" stroke="black" d="M321.5,-31C321.5,-31 446.5,-31 446.5,-31 452.5,-31 458.5,-37 458.5,-43 458.5,-43 458.5,-187 458.5,-187 458.5,-193 452.5,-199 446.5,-199 446.5,-199 321.5,-199 321.5,-199 315.5,-199 309.5,-193 309.5,-187 309.5,-187 309.5,-43 309.5,-43 309.5,-37 315.5,-31 321.5,-31"/>
<text text-anchor="middle" x="384" y="-183.8" font-family="Times,serif" font-size="14.00">Admin::UsersController</text>
<polyline fill="none" stroke="black" points="309.5,-176 458.5,-176 "/>
<text text-anchor="start" x="317.5" y="-160.8" font-family="Times,serif" font-size="14.00">destroy</text>
<text text-anchor="start" x="317.5" y="-145.8" font-family="Times,serif" font-size="14.00">edit</text>
<text text-anchor="start" x="317.5" y="-130.8" font-family="Times,serif" font-size="14.00">index</text>
<text text-anchor="start" x="317.5" y="-115.8" font-family="Times,serif" font-size="14.00">show</text>
<text text-anchor="start" x="317.5" y="-100.8" font-family="Times,serif" font-size="14.00">update</text>
<polyline fill="none" stroke="black" points="309.5,-93 458.5,-93 "/>
<polyline fill="none" stroke="black" points="309.5,-69 458.5,-69 "/>
<text text-anchor="start" x="317.5" y="-53.8" font-family="Times,serif" font-size="14.00">_layout</text>
<text text-anchor="start" x="317.5" y="-38.8" font-family="Times,serif" font-size="14.00">user_params</text>
</g>
<!-- Admin::CategoriesController -->
<g id="node4" class="node"><title>Admin::CategoriesController</title>
<path fill="none" stroke="black" d="M488,-38.5C488,-38.5 640,-38.5 640,-38.5 646,-38.5 652,-44.5 652,-50.5 652,-50.5 652,-179.5 652,-179.5 652,-185.5 646,-191.5 640,-191.5 640,-191.5 488,-191.5 488,-191.5 482,-191.5 476,-185.5 476,-179.5 476,-179.5 476,-50.5 476,-50.5 476,-44.5 482,-38.5 488,-38.5"/>
<text text-anchor="middle" x="564" y="-176.3" font-family="Times,serif" font-size="14.00">Admin::CategoriesController</text>
<polyline fill="none" stroke="black" points="476,-168.5 652,-168.5 "/>
<text text-anchor="start" x="484" y="-153.3" font-family="Times,serif" font-size="14.00">destroy</text>
<text text-anchor="start" x="484" y="-138.3" font-family="Times,serif" font-size="14.00">edit</text>
<text text-anchor="start" x="484" y="-123.3" font-family="Times,serif" font-size="14.00">index</text>
<text text-anchor="start" x="484" y="-108.3" font-family="Times,serif" font-size="14.00">update</text>
<polyline fill="none" stroke="black" points="476,-100.5 652,-100.5 "/>
<polyline fill="none" stroke="black" points="476,-76.5 652,-76.5 "/>
<text text-anchor="start" x="484" y="-61.3" font-family="Times,serif" font-size="14.00">_layout</text>
<text text-anchor="start" x="484" y="-46.3" font-family="Times,serif" font-size="14.00">category_params</text>
</g>
<!-- ApplicationController -->
<g id="node5" class="node"><title>ApplicationController</title>
<path fill="none" stroke="black" d="M929.5,-266.5C929.5,-266.5 1048.5,-266.5 1048.5,-266.5 1054.5,-266.5 1060.5,-272.5 1060.5,-278.5 1060.5,-278.5 1060.5,-437.5 1060.5,-437.5 1060.5,-443.5 1054.5,-449.5 1048.5,-449.5 1048.5,-449.5 929.5,-449.5 929.5,-449.5 923.5,-449.5 917.5,-443.5 917.5,-437.5 917.5,-437.5 917.5,-278.5 917.5,-278.5 917.5,-272.5 923.5,-266.5 929.5,-266.5"/>
<text text-anchor="middle" x="989" y="-434.3" font-family="Times,serif" font-size="14.00">ApplicationController</text>
<polyline fill="none" stroke="black" points="917.5,-426.5 1060.5,-426.5 "/>
<text text-anchor="start" x="925.5" y="-411.3" font-family="Times,serif" font-size="14.00">invalid_params</text>
<text text-anchor="start" x="925.5" y="-396.3" font-family="Times,serif" font-size="14.00">not_authorized</text>
<text text-anchor="start" x="925.5" y="-381.3" font-family="Times,serif" font-size="14.00">not_found</text>
<text text-anchor="start" x="925.5" y="-366.3" font-family="Times,serif" font-size="14.00">render_error_messages</text>
<text text-anchor="start" x="925.5" y="-351.3" font-family="Times,serif" font-size="14.00">render_success</text>
<polyline fill="none" stroke="black" points="917.5,-343.5 1060.5,-343.5 "/>
<polyline fill="none" stroke="black" points="917.5,-319.5 1060.5,-319.5 "/>
<text text-anchor="start" x="925.5" y="-304.3" font-family="Times,serif" font-size="14.00">_layout</text>
<text text-anchor="start" x="925.5" y="-289.3" font-family="Times,serif" font-size="14.00">authorize</text>
<text text-anchor="start" x="925.5" y="-274.3" font-family="Times,serif" font-size="14.00">current_user</text>
</g>
<!-- ApplicationController&#45;&gt;UsersController -->
<g id="edge1" class="edge"><title>ApplicationController&#45;&gt;UsersController</title>
<path fill="none" stroke="black" d="M917.33,-353.336C738.595,-343.079 278.293,-309.465 150,-230 139.825,-223.698 130.594,-215.57 122.322,-206.56"/>
</g>
<!-- ApplicationController&#45;&gt;CommentsController -->
<g id="edge2" class="edge"><title>ApplicationController&#45;&gt;CommentsController</title>
<path fill="none" stroke="black" d="M917.323,-350.917C762.158,-336.627 400.988,-296.973 300,-230 285.192,-220.18 272.624,-206.329 262.253,-191.652"/>
</g>
<!-- ApplicationController&#45;&gt;Admin::UsersController -->
<g id="edge3" class="edge"><title>ApplicationController&#45;&gt;Admin::UsersController</title>
<path fill="none" stroke="black" d="M917.402,-354.899C810.694,-348.593 607.464,-324.062 467,-230 454.591,-221.691 443.384,-210.868 433.509,-199.203"/>
</g>
<!-- ApplicationController&#45;&gt;Admin::CategoriesController -->
<g id="edge4" class="edge"><title>ApplicationController&#45;&gt;Admin::CategoriesController</title>
<path fill="none" stroke="black" d="M917.176,-340.245C847.176,-321.487 740.031,-286.136 661,-230 645.852,-219.24 631.599,-205.598 618.922,-191.523"/>
</g>
<!-- SubscriptionsController -->
<g id="node6" class="node"><title>SubscriptionsController</title>
<path fill="none" stroke="black" d="M682,-38.5C682,-38.5 812,-38.5 812,-38.5 818,-38.5 824,-44.5 824,-50.5 824,-50.5 824,-179.5 824,-179.5 824,-185.5 818,-191.5 812,-191.5 812,-191.5 682,-191.5 682,-191.5 676,-191.5 670,-185.5 670,-179.5 670,-179.5 670,-50.5 670,-50.5 670,-44.5 676,-38.5 682,-38.5"/>
<text text-anchor="middle" x="747" y="-176.3" font-family="Times,serif" font-size="14.00">SubscriptionsController</text>
<polyline fill="none" stroke="black" points="670,-168.5 824,-168.5 "/>
<text text-anchor="start" x="678" y="-153.3" font-family="Times,serif" font-size="14.00">add_course</text>
<text text-anchor="start" x="678" y="-138.3" font-family="Times,serif" font-size="14.00">check_status</text>
<text text-anchor="start" x="678" y="-123.3" font-family="Times,serif" font-size="14.00">destroy</text>
<polyline fill="none" stroke="black" points="670,-115.5 824,-115.5 "/>
<polyline fill="none" stroke="black" points="670,-91.5 824,-91.5 "/>
<text text-anchor="start" x="678" y="-76.3" font-family="Times,serif" font-size="14.00">_layout</text>
<text text-anchor="start" x="678" y="-61.3" font-family="Times,serif" font-size="14.00">course_id</text>
<text text-anchor="start" x="678" y="-46.3" font-family="Times,serif" font-size="14.00">set_subscription_by_user</text>
</g>
<!-- ApplicationController&#45;&gt;SubscriptionsController -->
<g id="edge5" class="edge"><title>ApplicationController&#45;&gt;SubscriptionsController</title>
<path fill="none" stroke="black" d="M917.154,-304.437C889.555,-282.762 858.567,-256.53 833,-230 821.646,-218.218 810.43,-204.934 800.036,-191.705"/>
</g>
<!-- ConversationsController -->
<g id="node7" class="node"><title>ConversationsController</title>
<path fill="none" stroke="black" d="M854.5,-1C854.5,-1 979.5,-1 979.5,-1 985.5,-1 991.5,-7 991.5,-13 991.5,-13 991.5,-217 991.5,-217 991.5,-223 985.5,-229 979.5,-229 979.5,-229 854.5,-229 854.5,-229 848.5,-229 842.5,-223 842.5,-217 842.5,-217 842.5,-13 842.5,-13 842.5,-7 848.5,-1 854.5,-1"/>
<text text-anchor="middle" x="917" y="-213.8" font-family="Times,serif" font-size="14.00">ConversationsController</text>
<polyline fill="none" stroke="black" points="842.5,-206 991.5,-206 "/>
<text text-anchor="start" x="850.5" y="-190.8" font-family="Times,serif" font-size="14.00">destroy</text>
<text text-anchor="start" x="850.5" y="-175.8" font-family="Times,serif" font-size="14.00">empty_trash</text>
<text text-anchor="start" x="850.5" y="-160.8" font-family="Times,serif" font-size="14.00">index</text>
<text text-anchor="start" x="850.5" y="-145.8" font-family="Times,serif" font-size="14.00">mark_as_read</text>
<text text-anchor="start" x="850.5" y="-130.8" font-family="Times,serif" font-size="14.00">reply</text>
<text text-anchor="start" x="850.5" y="-115.8" font-family="Times,serif" font-size="14.00">restore</text>
<text text-anchor="start" x="850.5" y="-100.8" font-family="Times,serif" font-size="14.00">show</text>
<polyline fill="none" stroke="black" points="842.5,-93 991.5,-93 "/>
<polyline fill="none" stroke="black" points="842.5,-69 991.5,-69 "/>
<text text-anchor="start" x="850.5" y="-53.8" font-family="Times,serif" font-size="14.00">_layout</text>
<text text-anchor="start" x="850.5" y="-38.8" font-family="Times,serif" font-size="14.00">get_box</text>
<text text-anchor="start" x="850.5" y="-23.8" font-family="Times,serif" font-size="14.00">get_conversation</text>
<text text-anchor="start" x="850.5" y="-8.8" font-family="Times,serif" font-size="14.00">get_mailbox</text>
</g>
<!-- ApplicationController&#45;&gt;ConversationsController -->
<g id="edge6" class="edge"><title>ApplicationController&#45;&gt;ConversationsController</title>
<path fill="none" stroke="black" d="M961.882,-266.232C958.255,-254.09 954.499,-241.518 950.775,-229.053"/>
</g>
<!-- VideoController -->
<g id="node8" class="node"><title>VideoController</title>
<path fill="none" stroke="black" d="M1021.5,-31C1021.5,-31 1102.5,-31 1102.5,-31 1108.5,-31 1114.5,-37 1114.5,-43 1114.5,-43 1114.5,-187 1114.5,-187 1114.5,-193 1108.5,-199 1102.5,-199 1102.5,-199 1021.5,-199 1021.5,-199 1015.5,-199 1009.5,-193 1009.5,-187 1009.5,-187 1009.5,-43 1009.5,-43 1009.5,-37 1015.5,-31 1021.5,-31"/>
<text text-anchor="middle" x="1062" y="-183.8" font-family="Times,serif" font-size="14.00">VideoController</text>
<polyline fill="none" stroke="black" points="1009.5,-176 1114.5,-176 "/>
<text text-anchor="start" x="1017.5" y="-160.8" font-family="Times,serif" font-size="14.00">create</text>
<text text-anchor="start" x="1017.5" y="-145.8" font-family="Times,serif" font-size="14.00">destroy</text>
<text text-anchor="start" x="1017.5" y="-130.8" font-family="Times,serif" font-size="14.00">index</text>
<text text-anchor="start" x="1017.5" y="-115.8" font-family="Times,serif" font-size="14.00">show</text>
<polyline fill="none" stroke="black" points="1009.5,-108 1114.5,-108 "/>
<polyline fill="none" stroke="black" points="1009.5,-84 1114.5,-84 "/>
<text text-anchor="start" x="1017.5" y="-68.8" font-family="Times,serif" font-size="14.00">_layout</text>
<text text-anchor="start" x="1017.5" y="-53.8" font-family="Times,serif" font-size="14.00">set_course</text>
<text text-anchor="start" x="1017.5" y="-38.8" font-family="Times,serif" font-size="14.00">set_video</text>
</g>
<!-- ApplicationController&#45;&gt;VideoController -->
<g id="edge7" class="edge"><title>ApplicationController&#45;&gt;VideoController</title>
<path fill="none" stroke="black" d="M1016.49,-266.232C1023.16,-244.216 1030.26,-220.787 1036.82,-199.143"/>
</g>
<!-- CategoriesController -->
<g id="node9" class="node"><title>CategoriesController</title>
<path fill="none" stroke="black" d="M1145,-68.5C1145,-68.5 1251,-68.5 1251,-68.5 1257,-68.5 1263,-74.5 1263,-80.5 1263,-80.5 1263,-149.5 1263,-149.5 1263,-155.5 1257,-161.5 1251,-161.5 1251,-161.5 1145,-161.5 1145,-161.5 1139,-161.5 1133,-155.5 1133,-149.5 1133,-149.5 1133,-80.5 1133,-80.5 1133,-74.5 1139,-68.5 1145,-68.5"/>
<text text-anchor="middle" x="1198" y="-146.3" font-family="Times,serif" font-size="14.00">CategoriesController</text>
<polyline fill="none" stroke="black" points="1133,-138.5 1263,-138.5 "/>
<text text-anchor="start" x="1141" y="-123.3" font-family="Times,serif" font-size="14.00">index</text>
<polyline fill="none" stroke="black" points="1133,-115.5 1263,-115.5 "/>
<polyline fill="none" stroke="black" points="1133,-91.5 1263,-91.5 "/>
<text text-anchor="start" x="1141" y="-76.3" font-family="Times,serif" font-size="14.00">_layout</text>
</g>
<!-- ApplicationController&#45;&gt;CategoriesController -->
<g id="edge8" class="edge"><title>ApplicationController&#45;&gt;CategoriesController</title>
<path fill="none" stroke="black" d="M1060.56,-294.93C1081.69,-275.123 1104.17,-252.487 1123,-230 1140.79,-208.748 1157.99,-183.109 1171.42,-161.533"/>
</g>
<!-- MessagesController -->
<g id="node10" class="node"><title>MessagesController</title>
<path fill="none" stroke="black" d="M1293.5,-61C1293.5,-61 1394.5,-61 1394.5,-61 1400.5,-61 1406.5,-67 1406.5,-73 1406.5,-73 1406.5,-157 1406.5,-157 1406.5,-163 1400.5,-169 1394.5,-169 1394.5,-169 1293.5,-169 1293.5,-169 1287.5,-169 1281.5,-163 1281.5,-157 1281.5,-157 1281.5,-73 1281.5,-73 1281.5,-67 1287.5,-61 1293.5,-61"/>
<text text-anchor="middle" x="1344" y="-153.8" font-family="Times,serif" font-size="14.00">MessagesController</text>
<polyline fill="none" stroke="black" points="1281.5,-146 1406.5,-146 "/>
<text text-anchor="start" x="1289.5" y="-130.8" font-family="Times,serif" font-size="14.00">create</text>
<text text-anchor="start" x="1289.5" y="-115.8" font-family="Times,serif" font-size="14.00">new</text>
<polyline fill="none" stroke="black" points="1281.5,-108 1406.5,-108 "/>
<polyline fill="none" stroke="black" points="1281.5,-84 1406.5,-84 "/>
<text text-anchor="start" x="1289.5" y="-68.8" font-family="Times,serif" font-size="14.00">_layout</text>
</g>
<!-- ApplicationController&#45;&gt;MessagesController -->
<g id="edge9" class="edge"><title>ApplicationController&#45;&gt;MessagesController</title>
<path fill="none" stroke="black" d="M1060.56,-337.71C1122,-318.359 1210.17,-283.645 1272,-230 1291.27,-213.278 1307.19,-190.129 1319.11,-169.058"/>
</g>
<!-- TasksController -->
<g id="node11" class="node"><title>TasksController</title>
<path fill="none" stroke="black" d="M1437,-46C1437,-46 1517,-46 1517,-46 1523,-46 1529,-52 1529,-58 1529,-58 1529,-172 1529,-172 1529,-178 1523,-184 1517,-184 1517,-184 1437,-184 1437,-184 1431,-184 1425,-178 1425,-172 1425,-172 1425,-58 1425,-58 1425,-52 1431,-46 1437,-46"/>
<text text-anchor="middle" x="1477" y="-168.8" font-family="Times,serif" font-size="14.00">TasksController</text>
<polyline fill="none" stroke="black" points="1425,-161 1529,-161 "/>
<text text-anchor="start" x="1433" y="-145.8" font-family="Times,serif" font-size="14.00">create</text>
<text text-anchor="start" x="1433" y="-130.8" font-family="Times,serif" font-size="14.00">destroy</text>
<polyline fill="none" stroke="black" points="1425,-123 1529,-123 "/>
<polyline fill="none" stroke="black" points="1425,-99 1529,-99 "/>
<text text-anchor="start" x="1433" y="-83.8" font-family="Times,serif" font-size="14.00">_layout</text>
<text text-anchor="start" x="1433" y="-68.8" font-family="Times,serif" font-size="14.00">set_task</text>
<text text-anchor="start" x="1433" y="-53.8" font-family="Times,serif" font-size="14.00">tasks_params</text>
</g>
<!-- ApplicationController&#45;&gt;TasksController -->
<g id="edge10" class="edge"><title>ApplicationController&#45;&gt;TasksController</title>
<path fill="none" stroke="black" d="M1060.8,-352.204C1152.29,-342.681 1310.99,-314.32 1415,-230 1429.96,-217.87 1441.85,-201.126 1451.04,-184.203"/>
</g>
<!-- SessionsController -->
<g id="node12" class="node"><title>SessionsController</title>
<path fill="none" stroke="black" d="M1559.5,-53.5C1559.5,-53.5 1654.5,-53.5 1654.5,-53.5 1660.5,-53.5 1666.5,-59.5 1666.5,-65.5 1666.5,-65.5 1666.5,-164.5 1666.5,-164.5 1666.5,-170.5 1660.5,-176.5 1654.5,-176.5 1654.5,-176.5 1559.5,-176.5 1559.5,-176.5 1553.5,-176.5 1547.5,-170.5 1547.5,-164.5 1547.5,-164.5 1547.5,-65.5 1547.5,-65.5 1547.5,-59.5 1553.5,-53.5 1559.5,-53.5"/>
<text text-anchor="middle" x="1607" y="-161.3" font-family="Times,serif" font-size="14.00">SessionsController</text>
<polyline fill="none" stroke="black" points="1547.5,-153.5 1666.5,-153.5 "/>
<text text-anchor="start" x="1555.5" y="-138.3" font-family="Times,serif" font-size="14.00">create</text>
<text text-anchor="start" x="1555.5" y="-123.3" font-family="Times,serif" font-size="14.00">destroy</text>
<text text-anchor="start" x="1555.5" y="-108.3" font-family="Times,serif" font-size="14.00">new</text>
<polyline fill="none" stroke="black" points="1547.5,-100.5 1666.5,-100.5 "/>
<polyline fill="none" stroke="black" points="1547.5,-76.5 1666.5,-76.5 "/>
<text text-anchor="start" x="1555.5" y="-61.3" font-family="Times,serif" font-size="14.00">_layout</text>
</g>
<!-- ApplicationController&#45;&gt;SessionsController -->
<g id="edge11" class="edge"><title>ApplicationController&#45;&gt;SessionsController</title>
<path fill="none" stroke="black" d="M1060.72,-357.562C1172.98,-354.956 1392.42,-335.458 1538,-230 1556.64,-216.496 1571.22,-196.268 1582.07,-176.582"/>
</g>
<!-- CoursesController -->
<g id="node13" class="node"><title>CoursesController</title>
<path fill="none" stroke="black" d="M1697,-38.5C1697,-38.5 1789,-38.5 1789,-38.5 1795,-38.5 1801,-44.5 1801,-50.5 1801,-50.5 1801,-179.5 1801,-179.5 1801,-185.5 1795,-191.5 1789,-191.5 1789,-191.5 1697,-191.5 1697,-191.5 1691,-191.5 1685,-185.5 1685,-179.5 1685,-179.5 1685,-50.5 1685,-50.5 1685,-44.5 1691,-38.5 1697,-38.5"/>
<text text-anchor="middle" x="1743" y="-176.3" font-family="Times,serif" font-size="14.00">CoursesController</text>
<polyline fill="none" stroke="black" points="1685,-168.5 1801,-168.5 "/>
<text text-anchor="start" x="1693" y="-153.3" font-family="Times,serif" font-size="14.00">create</text>
<text text-anchor="start" x="1693" y="-138.3" font-family="Times,serif" font-size="14.00">destroy</text>
<text text-anchor="start" x="1693" y="-123.3" font-family="Times,serif" font-size="14.00">index</text>
<text text-anchor="start" x="1693" y="-108.3" font-family="Times,serif" font-size="14.00">show</text>
<polyline fill="none" stroke="black" points="1685,-100.5 1801,-100.5 "/>
<polyline fill="none" stroke="black" points="1685,-76.5 1801,-76.5 "/>
<text text-anchor="start" x="1693" y="-61.3" font-family="Times,serif" font-size="14.00">_layout</text>
<text text-anchor="start" x="1693" y="-46.3" font-family="Times,serif" font-size="14.00">set_course</text>
</g>
<!-- ApplicationController&#45;&gt;CoursesController -->
<g id="edge12" class="edge"><title>ApplicationController&#45;&gt;CoursesController</title>
<path fill="none" stroke="black" d="M1060.59,-351.206C1215.52,-337.495 1575.96,-298.929 1675,-230 1689.19,-220.127 1700.9,-206.254 1710.36,-191.573"/>
</g>
</g>
</svg>
