<?xml version="1.0" encoding="UTF-8" standalone="no"?>
<!DOCTYPE svg PUBLIC "-//W3C//DTD SVG 1.1//EN"
 "http://www.w3.org/Graphics/SVG/1.1/DTD/svg11.dtd">
<!-- Generated by graphviz version 2.36.0 (20140111.2315)
 -->
<!-- Title: controllers_diagram Pages: 1 -->
<svg width="638pt" height="638pt"
 viewBox="0.00 0.00 638.00 638.00" xmlns="http://www.w3.org/2000/svg" xmlns:xlink="http://www.w3.org/1999/xlink">
<g id="graph0" class="graph" transform="scale(1 1) rotate(0) translate(4 634)">
<title>controllers_diagram</title>
<polygon fill="none" stroke="none" points="-4,4 -4,-634 634,-634 634,4 -4,4"/>
<!-- _diagram_info -->
<g id="node1" class="node"><title>_diagram_info</title>
<text text-anchor="start" x="365" y="-420.6" font-family="Times,serif" font-size="13.00">Controllers diagram</text>
<text text-anchor="start" x="365" y="-406.6" font-family="Times,serif" font-size="13.00">Date: Mar 16 2017 &#45; 22:26</text>
<text text-anchor="start" x="365" y="-392.6" font-family="Times,serif" font-size="13.00">Migration version: 20170207191340</text>
<text text-anchor="start" x="365" y="-378.6" font-family="Times,serif" font-size="13.00">Generated by RailRoady 1.5.2</text>
<text text-anchor="start" x="365" y="-364.6" font-family="Times,serif" font-size="13.00">http://railroady.prestonlee.com</text>
</g>
<!-- UsersController -->
<g id="node2" class="node"><title>UsersController</title>
<path fill="none" stroke="black" d="M352,-136.5C352,-136.5 469,-136.5 469,-136.5 475,-136.5 481,-142.5 481,-148.5 481,-148.5 481,-307.5 481,-307.5 481,-313.5 475,-319.5 469,-319.5 469,-319.5 352,-319.5 352,-319.5 346,-319.5 340,-313.5 340,-307.5 340,-307.5 340,-148.5 340,-148.5 340,-142.5 346,-136.5 352,-136.5"/>
<text text-anchor="middle" x="410.5" y="-304.3" font-family="Times,serif" font-size="14.00">UsersController</text>
<polyline fill="none" stroke="black" points="340,-296.5 481,-296.5 "/>
<text text-anchor="start" x="348" y="-281.3" font-family="Times,serif" font-size="14.00">get_id</text>
<text text-anchor="start" x="348" y="-266.3" font-family="Times,serif" font-size="14.00">index</text>
<text text-anchor="start" x="348" y="-251.3" font-family="Times,serif" font-size="14.00">show</text>
<text text-anchor="start" x="348" y="-236.3" font-family="Times,serif" font-size="14.00">update</text>
<text text-anchor="start" x="348" y="-221.3" font-family="Times,serif" font-size="14.00">vote</text>
<polyline fill="none" stroke="black" points="340,-213.5 481,-213.5 "/>
<polyline fill="none" stroke="black" points="340,-189.5 481,-189.5 "/>
<text text-anchor="start" x="348" y="-174.3" font-family="Times,serif" font-size="14.00">_layout</text>
<text text-anchor="start" x="348" y="-159.3" font-family="Times,serif" font-size="14.00">set_user</text>
<text text-anchor="start" x="348" y="-144.3" font-family="Times,serif" font-size="14.00">set_user_by_nickname</text>
</g>
<!-- CommentsController -->
<g id="node3" class="node"><title>CommentsController</title>
<path fill="none" stroke="black" d="M29,-459.5C29,-459.5 137,-459.5 137,-459.5 143,-459.5 149,-465.5 149,-471.5 149,-471.5 149,-600.5 149,-600.5 149,-606.5 143,-612.5 137,-612.5 137,-612.5 29,-612.5 29,-612.5 23,-612.5 17,-606.5 17,-600.5 17,-600.5 17,-471.5 17,-471.5 17,-465.5 23,-459.5 29,-459.5"/>
<text text-anchor="middle" x="83" y="-597.3" font-family="Times,serif" font-size="14.00">CommentsController</text>
<polyline fill="none" stroke="black" points="17,-589.5 149,-589.5 "/>
<text text-anchor="start" x="25" y="-574.3" font-family="Times,serif" font-size="14.00">create</text>
<text text-anchor="start" x="25" y="-559.3" font-family="Times,serif" font-size="14.00">destroy</text>
<text text-anchor="start" x="25" y="-544.3" font-family="Times,serif" font-size="14.00">index</text>
<polyline fill="none" stroke="black" points="17,-536.5 149,-536.5 "/>
<polyline fill="none" stroke="black" points="17,-512.5 149,-512.5 "/>
<text text-anchor="start" x="25" y="-497.3" font-family="Times,serif" font-size="14.00">_layout</text>
<text text-anchor="start" x="25" y="-482.3" font-family="Times,serif" font-size="14.00">comment_params</text>
<text text-anchor="start" x="25" y="-467.3" font-family="Times,serif" font-size="14.00">set_video</text>
</g>
<!-- ApplicationController -->
<g id="node4" class="node"><title>ApplicationController</title>
<path fill="none" stroke="black" d="M199,-374.5C199,-374.5 318,-374.5 318,-374.5 324,-374.5 330,-380.5 330,-386.5 330,-386.5 330,-515.5 330,-515.5 330,-521.5 324,-527.5 318,-527.5 318,-527.5 199,-527.5 199,-527.5 193,-527.5 187,-521.5 187,-515.5 187,-515.5 187,-386.5 187,-386.5 187,-380.5 193,-374.5 199,-374.5"/>
<text text-anchor="middle" x="258.5" y="-512.3" font-family="Times,serif" font-size="14.00">ApplicationController</text>
<polyline fill="none" stroke="black" points="187,-504.5 330,-504.5 "/>
<text text-anchor="start" x="195" y="-489.3" font-family="Times,serif" font-size="14.00">invalid_params</text>
<text text-anchor="start" x="195" y="-474.3" font-family="Times,serif" font-size="14.00">not_authorized</text>
<text text-anchor="start" x="195" y="-459.3" font-family="Times,serif" font-size="14.00">not_found</text>
<text text-anchor="start" x="195" y="-444.3" font-family="Times,serif" font-size="14.00">render_error_messages</text>
<text text-anchor="start" x="195" y="-429.3" font-family="Times,serif" font-size="14.00">render_success</text>
<polyline fill="none" stroke="black" points="187,-421.5 330,-421.5 "/>
<polyline fill="none" stroke="black" points="187,-397.5 330,-397.5 "/>
<text text-anchor="start" x="195" y="-382.3" font-family="Times,serif" font-size="14.00">_layout</text>
</g>
<!-- SubscriptionsController -->
<g id="node5" class="node"><title>SubscriptionsController</title>
<path fill="none" stroke="black" d="M488,-476.5C488,-476.5 618,-476.5 618,-476.5 624,-476.5 630,-482.5 630,-488.5 630,-488.5 630,-617.5 630,-617.5 630,-623.5 624,-629.5 618,-629.5 618,-629.5 488,-629.5 488,-629.5 482,-629.5 476,-623.5 476,-617.5 476,-617.5 476,-488.5 476,-488.5 476,-482.5 482,-476.5 488,-476.5"/>
<text text-anchor="middle" x="553" y="-614.3" font-family="Times,serif" font-size="14.00">SubscriptionsController</text>
<polyline fill="none" stroke="black" points="476,-606.5 630,-606.5 "/>
<text text-anchor="start" x="484" y="-591.3" font-family="Times,serif" font-size="14.00">add_course</text>
<text text-anchor="start" x="484" y="-576.3" font-family="Times,serif" font-size="14.00">check_status</text>
<text text-anchor="start" x="484" y="-561.3" font-family="Times,serif" font-size="14.00">destroy</text>
<polyline fill="none" stroke="black" points="476,-553.5 630,-553.5 "/>
<polyline fill="none" stroke="black" points="476,-529.5 630,-529.5 "/>
<text text-anchor="start" x="484" y="-514.3" font-family="Times,serif" font-size="14.00">_layout</text>
<text text-anchor="start" x="484" y="-499.3" font-family="Times,serif" font-size="14.00">course_id</text>
<text text-anchor="start" x="484" y="-484.3" font-family="Times,serif" font-size="14.00">set_subscription_by_user</text>
</g>
<!-- ConversationsController -->
<g id="node6" class="node"><title>ConversationsController</title>
<path fill="none" stroke="black" d="M165,-119.5C165,-119.5 290,-119.5 290,-119.5 296,-119.5 302,-125.5 302,-131.5 302,-131.5 302,-335.5 302,-335.5 302,-341.5 296,-347.5 290,-347.5 290,-347.5 165,-347.5 165,-347.5 159,-347.5 153,-341.5 153,-335.5 153,-335.5 153,-131.5 153,-131.5 153,-125.5 159,-119.5 165,-119.5"/>
<text text-anchor="middle" x="227.5" y="-332.3" font-family="Times,serif" font-size="14.00">ConversationsController</text>
<polyline fill="none" stroke="black" points="153,-324.5 302,-324.5 "/>
<text text-anchor="start" x="161" y="-309.3" font-family="Times,serif" font-size="14.00">destroy</text>
<text text-anchor="start" x="161" y="-294.3" font-family="Times,serif" font-size="14.00">empty_trash</text>
<text text-anchor="start" x="161" y="-279.3" font-family="Times,serif" font-size="14.00">index</text>
<text text-anchor="start" x="161" y="-264.3" font-family="Times,serif" font-size="14.00">mark_as_read</text>
<text text-anchor="start" x="161" y="-249.3" font-family="Times,serif" font-size="14.00">reply</text>
<text text-anchor="start" x="161" y="-234.3" font-family="Times,serif" font-size="14.00">restore</text>
<text text-anchor="start" x="161" y="-219.3" font-family="Times,serif" font-size="14.00">show</text>
<polyline fill="none" stroke="black" points="153,-211.5 302,-211.5 "/>
<polyline fill="none" stroke="black" points="153,-187.5 302,-187.5 "/>
<text text-anchor="start" x="161" y="-172.3" font-family="Times,serif" font-size="14.00">_layout</text>
<text text-anchor="start" x="161" y="-157.3" font-family="Times,serif" font-size="14.00">get_box</text>
<text text-anchor="start" x="161" y="-142.3" font-family="Times,serif" font-size="14.00">get_conversation</text>
<text text-anchor="start" x="161" y="-127.3" font-family="Times,serif" font-size="14.00">get_mailbox</text>
</g>
<!-- VideoController -->
<g id="node7" class="node"><title>VideoController</title>
<path fill="none" stroke="black" d="M29,-238.5C29,-238.5 110,-238.5 110,-238.5 116,-238.5 122,-244.5 122,-250.5 122,-250.5 122,-394.5 122,-394.5 122,-400.5 116,-406.5 110,-406.5 110,-406.5 29,-406.5 29,-406.5 23,-406.5 17,-400.5 17,-394.5 17,-394.5 17,-250.5 17,-250.5 17,-244.5 23,-238.5 29,-238.5"/>
<text text-anchor="middle" x="69.5" y="-391.3" font-family="Times,serif" font-size="14.00">VideoController</text>
<polyline fill="none" stroke="black" points="17,-383.5 122,-383.5 "/>
<text text-anchor="start" x="25" y="-368.3" font-family="Times,serif" font-size="14.00">create</text>
<text text-anchor="start" x="25" y="-353.3" font-family="Times,serif" font-size="14.00">destroy</text>
<text text-anchor="start" x="25" y="-338.3" font-family="Times,serif" font-size="14.00">index</text>
<text text-anchor="start" x="25" y="-323.3" font-family="Times,serif" font-size="14.00">show</text>
<polyline fill="none" stroke="black" points="17,-315.5 122,-315.5 "/>
<polyline fill="none" stroke="black" points="17,-291.5 122,-291.5 "/>
<text text-anchor="start" x="25" y="-276.3" font-family="Times,serif" font-size="14.00">_layout</text>
<text text-anchor="start" x="25" y="-261.3" font-family="Times,serif" font-size="14.00">set_course</text>
<text text-anchor="start" x="25" y="-246.3" font-family="Times,serif" font-size="14.00">set_video</text>
</g>
<!-- CategoriesController -->
<g id="node8" class="node"><title>CategoriesController</title>
<path fill="none" stroke="black" d="M165,-0.5C165,-0.5 271,-0.5 271,-0.5 277,-0.5 283,-6.5 283,-12.5 283,-12.5 283,-81.5 283,-81.5 283,-87.5 277,-93.5 271,-93.5 271,-93.5 165,-93.5 165,-93.5 159,-93.5 153,-87.5 153,-81.5 153,-81.5 153,-12.5 153,-12.5 153,-6.5 159,-0.5 165,-0.5"/>
<text text-anchor="middle" x="218" y="-78.3" font-family="Times,serif" font-size="14.00">CategoriesController</text>
<polyline fill="none" stroke="black" points="153,-70.5 283,-70.5 "/>
<text text-anchor="start" x="161" y="-55.3" font-family="Times,serif" font-size="14.00">index</text>
<polyline fill="none" stroke="black" points="153,-47.5 283,-47.5 "/>
<polyline fill="none" stroke="black" points="153,-23.5 283,-23.5 "/>
<text text-anchor="start" x="161" y="-8.3" font-family="Times,serif" font-size="14.00">_layout</text>
</g>
<!-- MessagesController -->
<g id="node9" class="node"><title>MessagesController</title>
<path fill="none" stroke="black" d="M352,-0.5C352,-0.5 453,-0.5 453,-0.5 459,-0.5 465,-6.5 465,-12.5 465,-12.5 465,-96.5 465,-96.5 465,-102.5 459,-108.5 453,-108.5 453,-108.5 352,-108.5 352,-108.5 346,-108.5 340,-102.5 340,-96.5 340,-96.5 340,-12.5 340,-12.5 340,-6.5 346,-0.5 352,-0.5"/>
<text text-anchor="middle" x="402.5" y="-93.3" font-family="Times,serif" font-size="14.00">MessagesController</text>
<polyline fill="none" stroke="black" points="340,-85.5 465,-85.5 "/>
<text text-anchor="start" x="348" y="-70.3" font-family="Times,serif" font-size="14.00">create</text>
<text text-anchor="start" x="348" y="-55.3" font-family="Times,serif" font-size="14.00">new</text>
<polyline fill="none" stroke="black" points="340,-47.5 465,-47.5 "/>
<polyline fill="none" stroke="black" points="340,-23.5 465,-23.5 "/>
<text text-anchor="start" x="348" y="-8.3" font-family="Times,serif" font-size="14.00">_layout</text>
</g>
<!-- CoursesController -->
<g id="node10" class="node"><title>CoursesController</title>
<path fill="none" stroke="black" d="M12,-51.5C12,-51.5 104,-51.5 104,-51.5 110,-51.5 116,-57.5 116,-63.5 116,-63.5 116,-192.5 116,-192.5 116,-198.5 110,-204.5 104,-204.5 104,-204.5 12,-204.5 12,-204.5 6,-204.5 0,-198.5 0,-192.5 0,-192.5 0,-63.5 0,-63.5 0,-57.5 6,-51.5 12,-51.5"/>
<text text-anchor="middle" x="58" y="-189.3" font-family="Times,serif" font-size="14.00">CoursesController</text>
<polyline fill="none" stroke="black" points="0,-181.5 116,-181.5 "/>
<text text-anchor="start" x="8" y="-166.3" font-family="Times,serif" font-size="14.00">create</text>
<text text-anchor="start" x="8" y="-151.3" font-family="Times,serif" font-size="14.00">destroy</text>
<text text-anchor="start" x="8" y="-136.3" font-family="Times,serif" font-size="14.00">index</text>
<text text-anchor="start" x="8" y="-121.3" font-family="Times,serif" font-size="14.00">show</text>
<polyline fill="none" stroke="black" points="0,-113.5 116,-113.5 "/>
<polyline fill="none" stroke="black" points="0,-89.5 116,-89.5 "/>
<text text-anchor="start" x="8" y="-74.3" font-family="Times,serif" font-size="14.00">_layout</text>
<text text-anchor="start" x="8" y="-59.3" font-family="Times,serif" font-size="14.00">set_course</text>
</g>
</g>
</svg>
