<?xml version="1.0" encoding="UTF-8" standalone="no"?>
<!DOCTYPE svg PUBLIC "-//W3C//DTD SVG 1.1//EN"
 "http://www.w3.org/Graphics/SVG/1.1/DTD/svg11.dtd">
<!-- Generated by graphviz version 2.36.0 (20140111.2315)
 -->
<!-- Title: models_diagram Pages: 1 -->
<svg width="1034pt" height="1320pt"
 viewBox="0.00 0.00 1034.00 1320.00" xmlns="http://www.w3.org/2000/svg" xmlns:xlink="http://www.w3.org/1999/xlink">
<g id="graph0" class="graph" transform="scale(1 1) rotate(0) translate(4 1316)">
<title>models_diagram</title>
<polygon fill="none" stroke="none" points="-4,4 -4,-1316 1030,-1316 1030,4 -4,4"/>
<!-- _diagram_info -->
<g id="node1" class="node"><title>_diagram_info</title>
<text text-anchor="start" x="270" y="-1275.6" font-family="Times,serif" font-size="13.00">Models diagram</text>
<text text-anchor="start" x="270" y="-1261.6" font-family="Times,serif" font-size="13.00">Date: Mar 16 2017 &#45; 22:26</text>
<text text-anchor="start" x="270" y="-1247.6" font-family="Times,serif" font-size="13.00">Migration version: 20170207191340</text>
<text text-anchor="start" x="270" y="-1233.6" font-family="Times,serif" font-size="13.00">Generated by RailRoady 1.5.2</text>
<text text-anchor="start" x="270" y="-1219.6" font-family="Times,serif" font-size="13.00">http://railroady.prestonlee.com</text>
</g>
<!-- Category -->
<g id="node2" class="node"><title>Category</title>
<path fill="none" stroke="black" d="M189,-630.5C189,-630.5 409,-630.5 409,-630.5 415,-630.5 421,-636.5 421,-642.5 421,-642.5 421,-709.5 421,-709.5 421,-715.5 415,-721.5 409,-721.5 409,-721.5 189,-721.5 189,-721.5 183,-721.5 177,-715.5 177,-709.5 177,-709.5 177,-642.5 177,-642.5 177,-636.5 183,-630.5 189,-630.5"/>
<text text-anchor="middle" x="299" y="-706.3" font-family="Times,serif" font-size="14.00">Category</text>
<polyline fill="none" stroke="black" points="177,-698.5 421,-698.5 "/>
<text text-anchor="start" x="185" y="-683.3" font-family="Times,serif" font-size="14.00">id :integer</text>
<text text-anchor="start" x="185" y="-668.3" font-family="Times,serif" font-size="14.00">name :character varying</text>
<text text-anchor="start" x="185" y="-653.3" font-family="Times,serif" font-size="14.00">created_at :timestamp without time zone</text>
<text text-anchor="start" x="185" y="-638.3" font-family="Times,serif" font-size="14.00">updated_at :timestamp without time zone</text>
</g>
<!-- Course -->
<g id="node11" class="node"><title>Course</title>
<path fill="none" stroke="black" d="M288,-455C288,-455 508,-455 508,-455 514,-455 520,-461 520,-467 520,-467 520,-579 520,-579 520,-585 514,-591 508,-591 508,-591 288,-591 288,-591 282,-591 276,-585 276,-579 276,-579 276,-467 276,-467 276,-461 282,-455 288,-455"/>
<text text-anchor="middle" x="398" y="-575.8" font-family="Times,serif" font-size="14.00">Course</text>
<polyline fill="none" stroke="black" points="276,-568 520,-568 "/>
<text text-anchor="start" x="284" y="-552.8" font-family="Times,serif" font-size="14.00">id :integer</text>
<text text-anchor="start" x="284" y="-537.8" font-family="Times,serif" font-size="14.00">name :character varying</text>
<text text-anchor="start" x="284" y="-522.8" font-family="Times,serif" font-size="14.00">heading :character varying</text>
<text text-anchor="start" x="284" y="-507.8" font-family="Times,serif" font-size="14.00">description :text</text>
<text text-anchor="start" x="284" y="-492.8" font-family="Times,serif" font-size="14.00">user_id :integer</text>
<text text-anchor="start" x="284" y="-477.8" font-family="Times,serif" font-size="14.00">created_at :timestamp without time zone</text>
<text text-anchor="start" x="284" y="-462.8" font-family="Times,serif" font-size="14.00">updated_at :timestamp without time zone</text>
</g>
<!-- Category&#45;&gt;Course -->
<g id="edge1" class="edge"><title>Category&#45;&gt;Course</title>
<path fill="none" stroke="#8c70f2" d="M334.016,-621.592C338.667,-614.498 343.505,-607.119 348.344,-599.737"/>
<polygon fill="#8c70f2" stroke="#8c70f2" points="333.918,-621.741 324.672,-627.637 331.177,-625.922 328.435,-630.104 328.435,-630.104 328.435,-630.104 331.177,-625.922 332.199,-632.571 333.918,-621.741 333.918,-621.741"/>
<polygon fill="#8c70f2" stroke="#8c70f2" points="348.533,-599.45 357.779,-593.554 351.274,-595.268 354.016,-591.087 354.016,-591.087 354.016,-591.087 351.274,-595.268 350.253,-588.62 348.533,-599.45 348.533,-599.45"/>
</g>
<!-- Subscription -->
<g id="node3" class="node"><title>Subscription</title>
<path fill="none" stroke="black" d="M451.5,-638C451.5,-638 576.5,-638 576.5,-638 582.5,-638 588.5,-644 588.5,-650 588.5,-650 588.5,-702 588.5,-702 588.5,-708 582.5,-714 576.5,-714 576.5,-714 451.5,-714 451.5,-714 445.5,-714 439.5,-708 439.5,-702 439.5,-702 439.5,-650 439.5,-650 439.5,-644 445.5,-638 451.5,-638"/>
<text text-anchor="middle" x="514" y="-698.8" font-family="Times,serif" font-size="14.00">Subscription</text>
<polyline fill="none" stroke="black" points="439.5,-691 588.5,-691 "/>
<text text-anchor="start" x="447.5" y="-675.8" font-family="Times,serif" font-size="14.00">id :integer</text>
<text text-anchor="start" x="447.5" y="-660.8" font-family="Times,serif" font-size="14.00">name :character varying</text>
<text text-anchor="start" x="447.5" y="-645.8" font-family="Times,serif" font-size="14.00">user_id :integer</text>
</g>
<!-- Subscription&#45;&gt;Course -->
<g id="edge2" class="edge"><title>Subscription&#45;&gt;Course</title>
<path fill="none" stroke="#bfbfc7" d="M479.07,-629.531C471.753,-620.006 463.85,-609.718 455.948,-599.432"/>
<polygon fill="#bfbfc7" stroke="#bfbfc7" points="479.234,-629.744 481.757,-640.416 482.28,-633.709 485.326,-637.674 485.326,-637.674 485.326,-637.674 482.28,-633.709 488.894,-634.933 479.234,-629.744 479.234,-629.744"/>
<polygon fill="#bfbfc7" stroke="#bfbfc7" points="455.714,-599.128 453.191,-588.456 452.668,-595.163 449.622,-591.198 449.622,-591.198 449.622,-591.198 452.668,-595.163 446.054,-593.939 455.714,-599.128 455.714,-599.128"/>
</g>
<!-- Task -->
<g id="node4" class="node"><title>Task</title>
<path fill="none" stroke="black" d="M94,-272C94,-272 314,-272 314,-272 320,-272 326,-278 326,-284 326,-284 326,-396 326,-396 326,-402 320,-408 314,-408 314,-408 94,-408 94,-408 88,-408 82,-402 82,-396 82,-396 82,-284 82,-284 82,-278 88,-272 94,-272"/>
<text text-anchor="middle" x="204" y="-392.8" font-family="Times,serif" font-size="14.00">Task</text>
<polyline fill="none" stroke="black" points="82,-385 326,-385 "/>
<text text-anchor="start" x="90" y="-369.8" font-family="Times,serif" font-size="14.00">id :integer</text>
<text text-anchor="start" x="90" y="-354.8" font-family="Times,serif" font-size="14.00">course_id :integer</text>
<text text-anchor="start" x="90" y="-339.8" font-family="Times,serif" font-size="14.00">name :character varying</text>
<text text-anchor="start" x="90" y="-324.8" font-family="Times,serif" font-size="14.00">file :character varying</text>
<text text-anchor="start" x="90" y="-309.8" font-family="Times,serif" font-size="14.00">format :character varying</text>
<text text-anchor="start" x="90" y="-294.8" font-family="Times,serif" font-size="14.00">created_at :timestamp without time zone</text>
<text text-anchor="start" x="90" y="-279.8" font-family="Times,serif" font-size="14.00">updated_at :timestamp without time zone</text>
</g>
<!-- Comment -->
<g id="node5" class="node"><title>Comment</title>
<path fill="none" stroke="black" d="M12,-74.5C12,-74.5 232,-74.5 232,-74.5 238,-74.5 244,-80.5 244,-86.5 244,-86.5 244,-213.5 244,-213.5 244,-219.5 238,-225.5 232,-225.5 232,-225.5 12,-225.5 12,-225.5 6,-225.5 0,-219.5 0,-213.5 0,-213.5 0,-86.5 0,-86.5 0,-80.5 6,-74.5 12,-74.5"/>
<text text-anchor="middle" x="122" y="-210.3" font-family="Times,serif" font-size="14.00">Comment</text>
<polyline fill="none" stroke="black" points="0,-202.5 244,-202.5 "/>
<text text-anchor="start" x="8" y="-187.3" font-family="Times,serif" font-size="14.00">id :integer</text>
<text text-anchor="start" x="8" y="-172.3" font-family="Times,serif" font-size="14.00">user_id :integer</text>
<text text-anchor="start" x="8" y="-157.3" font-family="Times,serif" font-size="14.00">body :text</text>
<text text-anchor="start" x="8" y="-142.3" font-family="Times,serif" font-size="14.00">commentable_id :integer</text>
<text text-anchor="start" x="8" y="-127.3" font-family="Times,serif" font-size="14.00">commentable_type :character varying</text>
<text text-anchor="start" x="8" y="-112.3" font-family="Times,serif" font-size="14.00">root_comment_id :integer</text>
<text text-anchor="start" x="8" y="-97.3" font-family="Times,serif" font-size="14.00">created_at :timestamp without time zone</text>
<text text-anchor="start" x="8" y="-82.3" font-family="Times,serif" font-size="14.00">updated_at :timestamp without time zone</text>
</g>
<!-- RootComment -->
<g id="node12" class="node"><title>RootComment</title>
<ellipse fill="none" stroke="black" cx="122" cy="-18" rx="63.5411" ry="18"/>
<text text-anchor="middle" x="122" y="-14.3" font-family="Times,serif" font-size="14.00">RootComment</text>
</g>
<!-- Comment&#45;&gt;RootComment -->
<g id="edge3" class="edge"><title>Comment&#45;&gt;RootComment</title>
<path fill="none" stroke="#6bde43" d="M122,-65.8926C122,-58.92 122,-52.2495 122,-46.2386"/>
<ellipse fill="none" stroke="#6bde43" cx="122" cy="-70.1317" rx="4" ry="4"/>
<polygon fill="#6bde43" stroke="#6bde43" points="122,-46.2085 126.5,-36.2084 122,-41.2085 122,-36.2085 122,-36.2085 122,-36.2085 122,-41.2085 117.5,-36.2085 122,-46.2085 122,-46.2085"/>
</g>
<!-- Vote -->
<g id="node6" class="node"><title>Vote</title>
<path fill="none" stroke="black" d="M521,-82C521,-82 741,-82 741,-82 747,-82 753,-88 753,-94 753,-94 753,-206 753,-206 753,-212 747,-218 741,-218 741,-218 521,-218 521,-218 515,-218 509,-212 509,-206 509,-206 509,-94 509,-94 509,-88 515,-82 521,-82"/>
<text text-anchor="middle" x="631" y="-202.8" font-family="Times,serif" font-size="14.00">Vote</text>
<polyline fill="none" stroke="black" points="509,-195 753,-195 "/>
<text text-anchor="start" x="517" y="-179.8" font-family="Times,serif" font-size="14.00">id :integer</text>
<text text-anchor="start" x="517" y="-164.8" font-family="Times,serif" font-size="14.00">user_id :integer</text>
<text text-anchor="start" x="517" y="-149.8" font-family="Times,serif" font-size="14.00">vote_flag :boolean</text>
<text text-anchor="start" x="517" y="-134.8" font-family="Times,serif" font-size="14.00">votable_id :integer</text>
<text text-anchor="start" x="517" y="-119.8" font-family="Times,serif" font-size="14.00">votable_type :character varying</text>
<text text-anchor="start" x="517" y="-104.8" font-family="Times,serif" font-size="14.00">created_at :timestamp without time zone</text>
<text text-anchor="start" x="517" y="-89.8" font-family="Times,serif" font-size="14.00">updated_at :timestamp without time zone</text>
</g>
<!-- Video -->
<g id="node7" class="node"><title>Video</title>
<path fill="none" stroke="black" d="M394,-264.5C394,-264.5 614,-264.5 614,-264.5 620,-264.5 626,-270.5 626,-276.5 626,-276.5 626,-403.5 626,-403.5 626,-409.5 620,-415.5 614,-415.5 614,-415.5 394,-415.5 394,-415.5 388,-415.5 382,-409.5 382,-403.5 382,-403.5 382,-276.5 382,-276.5 382,-270.5 388,-264.5 394,-264.5"/>
<text text-anchor="middle" x="504" y="-400.3" font-family="Times,serif" font-size="14.00">Video</text>
<polyline fill="none" stroke="black" points="382,-392.5 626,-392.5 "/>
<text text-anchor="start" x="390" y="-377.3" font-family="Times,serif" font-size="14.00">id :integer</text>
<text text-anchor="start" x="390" y="-362.3" font-family="Times,serif" font-size="14.00">video :character varying</text>
<text text-anchor="start" x="390" y="-347.3" font-family="Times,serif" font-size="14.00">course_id :integer</text>
<text text-anchor="start" x="390" y="-332.3" font-family="Times,serif" font-size="14.00">created_at :timestamp without time zone</text>
<text text-anchor="start" x="390" y="-317.3" font-family="Times,serif" font-size="14.00">updated_at :timestamp without time zone</text>
<text text-anchor="start" x="390" y="-302.3" font-family="Times,serif" font-size="14.00">name :character varying</text>
<text text-anchor="start" x="390" y="-287.3" font-family="Times,serif" font-size="14.00">format :character varying</text>
<text text-anchor="start" x="390" y="-272.3" font-family="Times,serif" font-size="14.00">description :text</text>
</g>
<!-- Video&#45;&gt;Comment -->
<g id="edge6" class="edge"><title>Video&#45;&gt;Comment</title>
<path fill="none" stroke="#a76974" d="M374.555,-275.294C335.552,-256.099 292.715,-235.017 253.576,-215.755"/>
<ellipse fill="none" stroke="#a76974" cx="378.231" cy="-277.103" rx="4.00002" ry="4.00002"/>
<polygon fill="#a76974" stroke="#a76974" points="253.21,-215.575 246.225,-207.121 248.724,-213.367 244.238,-211.159 244.238,-211.159 244.238,-211.159 248.724,-213.367 242.251,-215.196 253.21,-215.575 253.21,-215.575"/>
</g>
<!-- Video&#45;&gt;Vote -->
<g id="edge5" class="edge"><title>Video&#45;&gt;Vote</title>
<path fill="none" stroke="#e80fac" d="M558.999,-257.584C565.943,-247.305 573.024,-236.822 579.904,-226.639"/>
<ellipse fill="none" stroke="#e80fac" cx="556.615" cy="-261.113" rx="4.00002" ry="4.00002"/>
<polygon fill="#e80fac" stroke="#e80fac" points="580.03,-226.452 589.356,-220.685 582.829,-222.309 585.627,-218.166 585.627,-218.166 585.627,-218.166 582.829,-222.309 581.899,-215.647 580.03,-226.452 580.03,-226.452"/>
</g>
<!-- Image -->
<g id="node10" class="node"><title>Image</title>
<path fill="none" stroke="black" d="M342.5,-104.5C342.5,-104.5 455.5,-104.5 455.5,-104.5 461.5,-104.5 467.5,-110.5 467.5,-116.5 467.5,-116.5 467.5,-183.5 467.5,-183.5 467.5,-189.5 461.5,-195.5 455.5,-195.5 455.5,-195.5 342.5,-195.5 342.5,-195.5 336.5,-195.5 330.5,-189.5 330.5,-183.5 330.5,-183.5 330.5,-116.5 330.5,-116.5 330.5,-110.5 336.5,-104.5 342.5,-104.5"/>
<text text-anchor="middle" x="399" y="-180.3" font-family="Times,serif" font-size="14.00">Image</text>
<polyline fill="none" stroke="black" points="330.5,-172.5 467.5,-172.5 "/>
<text text-anchor="start" x="338.5" y="-157.3" font-family="Times,serif" font-size="14.00">id :integer</text>
<text text-anchor="start" x="338.5" y="-142.3" font-family="Times,serif" font-size="14.00">file :character varying</text>
<text text-anchor="start" x="338.5" y="-127.3" font-family="Times,serif" font-size="14.00">course_id :integer</text>
<text text-anchor="start" x="338.5" y="-112.3" font-family="Times,serif" font-size="14.00">video_id :integer</text>
</g>
<!-- Video&#45;&gt;Image -->
<g id="edge4" class="edge"><title>Video&#45;&gt;Image</title>
<path fill="none" stroke="#09c4dd" d="M458.365,-257.292C448.027,-238.781 437.327,-219.624 427.907,-202.757"/>
<ellipse fill="none" stroke="#09c4dd" cx="460.4" cy="-260.935" rx="4.00002" ry="4.00002"/>
<ellipse fill="#09c4dd" stroke="#09c4dd" cx="425.903" cy="-199.17" rx="4.00002" ry="4.00002"/>
</g>
<!-- Role -->
<g id="node8" class="node"><title>Role</title>
<path fill="none" stroke="black" d="M506,-1190.5C506,-1190.5 726,-1190.5 726,-1190.5 732,-1190.5 738,-1196.5 738,-1202.5 738,-1202.5 738,-1299.5 738,-1299.5 738,-1305.5 732,-1311.5 726,-1311.5 726,-1311.5 506,-1311.5 506,-1311.5 500,-1311.5 494,-1305.5 494,-1299.5 494,-1299.5 494,-1202.5 494,-1202.5 494,-1196.5 500,-1190.5 506,-1190.5"/>
<text text-anchor="middle" x="616" y="-1296.3" font-family="Times,serif" font-size="14.00">Role</text>
<polyline fill="none" stroke="black" points="494,-1288.5 738,-1288.5 "/>
<text text-anchor="start" x="502" y="-1273.3" font-family="Times,serif" font-size="14.00">id :integer</text>
<text text-anchor="start" x="502" y="-1258.3" font-family="Times,serif" font-size="14.00">name :character varying</text>
<text text-anchor="start" x="502" y="-1243.3" font-family="Times,serif" font-size="14.00">resource_id :integer</text>
<text text-anchor="start" x="502" y="-1228.3" font-family="Times,serif" font-size="14.00">resource_type :character varying</text>
<text text-anchor="start" x="502" y="-1213.3" font-family="Times,serif" font-size="14.00">created_at :timestamp without time zone</text>
<text text-anchor="start" x="502" y="-1198.3" font-family="Times,serif" font-size="14.00">updated_at :timestamp without time zone</text>
</g>
<!-- User -->
<g id="node9" class="node"><title>User</title>
<path fill="none" stroke="black" d="M471.5,-775C471.5,-775 760.5,-775 760.5,-775 766.5,-775 772.5,-781 772.5,-787 772.5,-787 772.5,-1139 772.5,-1139 772.5,-1145 766.5,-1151 760.5,-1151 760.5,-1151 471.5,-1151 471.5,-1151 465.5,-1151 459.5,-1145 459.5,-1139 459.5,-1139 459.5,-787 459.5,-787 459.5,-781 465.5,-775 471.5,-775"/>
<text text-anchor="middle" x="616" y="-1135.8" font-family="Times,serif" font-size="14.00">User</text>
<polyline fill="none" stroke="black" points="459.5,-1128 772.5,-1128 "/>
<text text-anchor="start" x="467.5" y="-1112.8" font-family="Times,serif" font-size="14.00">id :integer</text>
<text text-anchor="start" x="467.5" y="-1097.8" font-family="Times,serif" font-size="14.00">provider :character varying</text>
<text text-anchor="start" x="467.5" y="-1082.8" font-family="Times,serif" font-size="14.00">uid :character varying</text>
<text text-anchor="start" x="467.5" y="-1067.8" font-family="Times,serif" font-size="14.00">encrypted_password :character varying</text>
<text text-anchor="start" x="467.5" y="-1052.8" font-family="Times,serif" font-size="14.00">reset_password_token :character varying</text>
<text text-anchor="start" x="467.5" y="-1037.8" font-family="Times,serif" font-size="14.00">reset_password_sent_at :timestamp without time zone</text>
<text text-anchor="start" x="467.5" y="-1022.8" font-family="Times,serif" font-size="14.00">remember_created_at :timestamp without time zone</text>
<text text-anchor="start" x="467.5" y="-1007.8" font-family="Times,serif" font-size="14.00">sign_in_count :integer</text>
<text text-anchor="start" x="467.5" y="-992.8" font-family="Times,serif" font-size="14.00">current_sign_in_at :timestamp without time zone</text>
<text text-anchor="start" x="467.5" y="-977.8" font-family="Times,serif" font-size="14.00">last_sign_in_at :timestamp without time zone</text>
<text text-anchor="start" x="467.5" y="-962.8" font-family="Times,serif" font-size="14.00">current_sign_in_ip :character varying</text>
<text text-anchor="start" x="467.5" y="-947.8" font-family="Times,serif" font-size="14.00">last_sign_in_ip :character varying</text>
<text text-anchor="start" x="467.5" y="-932.8" font-family="Times,serif" font-size="14.00">confirmation_token :character varying</text>
<text text-anchor="start" x="467.5" y="-917.8" font-family="Times,serif" font-size="14.00">confirmed_at :timestamp without time zone</text>
<text text-anchor="start" x="467.5" y="-902.8" font-family="Times,serif" font-size="14.00">confirmation_sent_at :timestamp without time zone</text>
<text text-anchor="start" x="467.5" y="-887.8" font-family="Times,serif" font-size="14.00">unconfirmed_email :character varying</text>
<text text-anchor="start" x="467.5" y="-872.8" font-family="Times,serif" font-size="14.00">name :character varying</text>
<text text-anchor="start" x="467.5" y="-857.8" font-family="Times,serif" font-size="14.00">nickname :character varying</text>
<text text-anchor="start" x="467.5" y="-842.8" font-family="Times,serif" font-size="14.00">image :character varying</text>
<text text-anchor="start" x="467.5" y="-827.8" font-family="Times,serif" font-size="14.00">email :character varying</text>
<text text-anchor="start" x="467.5" y="-812.8" font-family="Times,serif" font-size="14.00">tokens :text</text>
<text text-anchor="start" x="467.5" y="-797.8" font-family="Times,serif" font-size="14.00">created_at :timestamp without time zone</text>
<text text-anchor="start" x="467.5" y="-782.8" font-family="Times,serif" font-size="14.00">updated_at :timestamp without time zone</text>
</g>
<!-- Role&#45;&gt;User -->
<g id="edge7" class="edge"><title>Role&#45;&gt;User</title>
<path fill="none" stroke="#c57625" d="M616,-1180.26C616,-1174.23 616,-1167.96 616,-1161.52"/>
<polygon fill="#c57625" stroke="#c57625" points="616,-1180.39 611.5,-1190.39 616,-1185.39 616,-1190.39 616,-1190.39 616,-1190.39 616,-1185.39 620.5,-1190.39 616,-1180.39 616,-1180.39"/>
<polygon fill="#c57625" stroke="#c57625" points="616,-1161.26 620.5,-1151.26 616,-1156.26 616,-1151.26 616,-1151.26 616,-1151.26 616,-1156.26 611.5,-1151.26 616,-1161.26 616,-1161.26"/>
</g>
<!-- User&#45;&gt;Subscription -->
<g id="edge12" class="edge"><title>User&#45;&gt;Subscription</title>
<path fill="none" stroke="#88259c" d="M546.212,-767.004C540.276,-750.419 534.735,-734.936 529.979,-721.648"/>
<ellipse fill="none" stroke="#88259c" cx="547.612" cy="-770.916" rx="4.00001" ry="4.00001"/>
<ellipse fill="#88259c" stroke="#88259c" cx="528.621" cy="-717.852" rx="4.00001" ry="4.00001"/>
</g>
<!-- User&#45;&gt;Task -->
<g id="edge10" class="edge"><title>User&#45;&gt;Task</title>
<path fill="none" stroke="#cf8447" d="M449.78,-919.777C349.161,-884.711 228.871,-823.664 168,-722 112.245,-628.879 142.306,-499.46 171.364,-417.987"/>
<polygon fill="#cf8447" stroke="#cf8447" points="449.993,-919.85 457.995,-927.348 454.723,-921.47 459.453,-923.09 459.453,-923.09 459.453,-923.09 454.723,-921.47 460.911,-918.833 449.993,-919.85 449.993,-919.85"/>
<polygon fill="#cf8447" stroke="#cf8447" points="171.473,-417.69 179.125,-409.836 173.185,-412.992 174.897,-408.294 174.897,-408.294 174.897,-408.294 173.185,-412.992 170.67,-406.753 171.473,-417.69 171.473,-417.69"/>
</g>
<!-- User&#45;&gt;Comment -->
<g id="edge11" class="edge"><title>User&#45;&gt;Comment</title>
<path fill="none" stroke="#a45516" d="M451.111,-947.648C285.285,-923.102 54,-856.662 54,-677 54,-677 54,-677 54,-339 54,-303.619 64.7819,-266.606 77.7592,-234.871"/>
<ellipse fill="none" stroke="#a45516" cx="455.493" cy="-948.283" rx="4.00001" ry="4.00001"/>
<polygon fill="#a45516" stroke="#a45516" points="77.7694,-234.847 85.804,-227.384 79.7138,-230.24 81.6582,-225.634 81.6582,-225.634 81.6582,-225.634 79.7138,-230.24 77.5124,-223.884 77.7694,-234.847 77.7694,-234.847"/>
</g>
<!-- User&#45;&gt;Vote -->
<g id="edge8" class="edge"><title>User&#45;&gt;Vote</title>
<path fill="none" stroke="#070584" d="M648.987,-766.665C652.03,-736.72 654,-706.097 654,-677 654,-677 654,-677 654,-339 654,-302.496 649.675,-262.297 644.775,-228.474"/>
<ellipse fill="none" stroke="#070584" cx="648.563" cy="-770.697" rx="4" ry="4"/>
<polygon fill="#070584" stroke="#070584" points="644.717,-228.083 647.691,-217.528 643.979,-223.138 643.241,-218.192 643.241,-218.192 643.241,-218.192 643.979,-223.138 638.79,-218.857 644.717,-228.083 644.717,-228.083"/>
</g>
<!-- User&#45;&gt;Course -->
<g id="edge9" class="edge"><title>User&#45;&gt;Course</title>
<path fill="none" stroke="#fc9423" d="M637.022,-766.461C633.767,-718.834 622.666,-670.108 597,-630 580.603,-604.377 555.822,-584.542 529.259,-569.342"/>
<ellipse fill="none" stroke="#fc9423" cx="637.274" cy="-770.721" rx="4" ry="4"/>
<polygon fill="#fc9423" stroke="#fc9423" points="528.957,-569.177 522.357,-560.419 524.574,-566.77 520.191,-564.364 520.191,-564.364 520.191,-564.364 524.574,-566.77 518.025,-568.308 528.957,-569.177 528.957,-569.177"/>
</g>
<!-- Mailboxer::Message -->
<g id="node13" class="node"><title>Mailboxer::Message</title>
<ellipse fill="none" stroke="black" cx="766" cy="-676" rx="83.2649" ry="18"/>
<text text-anchor="middle" x="766" y="-672.3" font-family="Times,serif" font-size="14.00">Mailboxer::Message</text>
</g>
<!-- User&#45;&gt;Mailboxer::Message -->
<g id="edge13" class="edge"><title>User&#45;&gt;Mailboxer::Message</title>
<path fill="none" stroke="#d2376e" d="M718.452,-767.341C731.759,-742.059 743.728,-719.317 752.329,-702.976"/>
<ellipse fill="none" stroke="#d2376e" cx="716.451" cy="-771.142" rx="4.00002" ry="4.00002"/>
<polygon fill="#d2376e" stroke="#d2376e" points="752.331,-702.972 760.97,-696.218 754.659,-698.547 756.988,-694.122 756.988,-694.122 756.988,-694.122 754.659,-698.547 753.006,-692.027 752.331,-702.972 752.331,-702.972"/>
<text text-anchor="middle" x="755" y="-744.3" font-family="Times,serif" font-size="14.00">messages</text>
</g>
<!-- Mailboxer::Receipt -->
<g id="node14" class="node"><title>Mailboxer::Receipt</title>
<ellipse fill="none" stroke="black" cx="947" cy="-676" rx="78.9404" ry="18"/>
<text text-anchor="middle" x="947" y="-672.3" font-family="Times,serif" font-size="14.00">Mailboxer::Receipt</text>
</g>
<!-- User&#45;&gt;Mailboxer::Receipt -->
<g id="edge14" class="edge"><title>User&#45;&gt;Mailboxer::Receipt</title>
<path fill="none" stroke="#d9242f" d="M778.889,-821.748C833.375,-774.835 888.238,-727.596 919.849,-700.378"/>
<ellipse fill="none" stroke="#d9242f" cx="775.807" cy="-824.402" rx="4.00002" ry="4.00002"/>
<polygon fill="#d9242f" stroke="#d9242f" points="920.172,-700.1 930.686,-696.985 923.961,-696.838 927.75,-693.575 927.75,-693.575 927.75,-693.575 923.961,-696.838 924.813,-690.165 920.172,-700.1 920.172,-700.1"/>
<text text-anchor="middle" x="888.5" y="-744.3" font-family="Times,serif" font-size="14.00">receipts</text>
</g>
<!-- Course&#45;&gt;Task -->
<g id="edge16" class="edge"><title>Course&#45;&gt;Task</title>
<path fill="none" stroke="#449c61" d="M319.847,-449.084C307.808,-437.852 295.366,-426.243 283.302,-414.988"/>
<ellipse fill="none" stroke="#449c61" cx="323.113" cy="-452.131" rx="4.00002" ry="4.00002"/>
<polygon fill="#449c61" stroke="#449c61" points="283.158,-414.854 278.916,-404.742 279.502,-411.443 275.847,-408.032 275.847,-408.032 275.847,-408.032 279.502,-411.443 272.777,-411.322 283.158,-414.854 283.158,-414.854"/>
</g>
<!-- Course&#45;&gt;Video -->
<g id="edge15" class="edge"><title>Course&#45;&gt;Video</title>
<path fill="none" stroke="#bb3939" d="M441.388,-447.914C445.918,-440.177 450.546,-432.275 455.132,-424.444"/>
<ellipse fill="none" stroke="#bb3939" cx="439.341" cy="-451.408" rx="4.00002" ry="4.00002"/>
<polygon fill="#bb3939" stroke="#bb3939" points="455.232,-424.274 464.169,-417.919 457.759,-419.959 460.285,-415.645 460.285,-415.645 460.285,-415.645 457.759,-419.959 456.402,-413.371 455.232,-424.274 455.232,-424.274"/>
</g>
<!-- Course&#45;&gt;Image -->
<g id="edge17" class="edge"><title>Course&#45;&gt;Image</title>
<path fill="none" stroke="#733cb8" d="M378.047,-446.981C375.96,-436.639 374.175,-426.102 373,-416 365.194,-348.897 365.377,-331.124 373,-264 375.266,-244.048 379.713,-222.488 384.298,-203.603"/>
<ellipse fill="none" stroke="#733cb8" cx="378.875" cy="-450.927" rx="4.00001" ry="4.00001"/>
<ellipse fill="#733cb8" stroke="#733cb8" cx="385.301" cy="-199.567" rx="4.00001" ry="4.00001"/>
</g>
</g>
</svg>
