<?xml version="1.0" encoding="UTF-8" standalone="no"?>
<!DOCTYPE svg PUBLIC "-//W3C//DTD SVG 1.1//EN"
 "http://www.w3.org/Graphics/SVG/1.1/DTD/svg11.dtd">
<!-- Generated by graphviz version 2.36.0 (20140111.2315)
 -->
<!-- Title: models_diagram Pages: 1 -->
<svg width="768pt" height="544pt"
 viewBox="0.00 0.00 768.00 544.00" xmlns="http://www.w3.org/2000/svg" xmlns:xlink="http://www.w3.org/1999/xlink">
<g id="graph0" class="graph" transform="scale(1 1) rotate(0) translate(4 540)">
<title>models_diagram</title>
<polygon fill="none" stroke="none" points="-4,4 -4,-540 764,-540 764,4 -4,4"/>
<!-- _diagram_info -->
<g id="node1" class="node"><title>_diagram_info</title>
<text text-anchor="start" x="99" y="-521.6" font-family="Times,serif" font-size="13.00">Models diagram</text>
<text text-anchor="start" x="99" y="-507.6" font-family="Times,serif" font-size="13.00">Date: Mar 16 2017 &#45; 22:26</text>
<text text-anchor="start" x="99" y="-493.6" font-family="Times,serif" font-size="13.00">Migration version: 20170207191340</text>
<text text-anchor="start" x="99" y="-479.6" font-family="Times,serif" font-size="13.00">Generated by RailRoady 1.5.2</text>
<text text-anchor="start" x="99" y="-465.6" font-family="Times,serif" font-size="13.00">http://railroady.prestonlee.com</text>
</g>
<!-- Category -->
<g id="node2" class="node"><title>Category</title>
<ellipse fill="none" stroke="black" cx="151" cy="-314" rx="42.3456" ry="18"/>
<text text-anchor="middle" x="151" y="-310.3" font-family="Times,serif" font-size="14.00">Category</text>
</g>
<!-- Course -->
<g id="node11" class="node"><title>Course</title>
<ellipse fill="none" stroke="black" cx="204" cy="-240" rx="35.6194" ry="18"/>
<text text-anchor="middle" x="204" y="-236.3" font-family="Times,serif" font-size="14.00">Course</text>
</g>
<!-- Category&#45;&gt;Course -->
<g id="edge1" class="edge"><title>Category&#45;&gt;Course</title>
<path fill="none" stroke="#2baa70" d="M169.084,-288.432C174.527,-281.038 180.499,-272.926 185.94,-265.534"/>
<polygon fill="#2baa70" stroke="#2baa70" points="168.955,-288.609 159.402,-293.994 165.991,-292.635 163.027,-296.662 163.027,-296.662 163.027,-296.662 165.991,-292.635 166.651,-299.33 168.955,-288.609 168.955,-288.609"/>
<polygon fill="#2baa70" stroke="#2baa70" points="186.093,-265.327 195.645,-259.941 189.057,-261.3 192.021,-257.273 192.021,-257.273 192.021,-257.273 189.057,-261.3 188.397,-254.606 186.093,-265.327 186.093,-265.327"/>
</g>
<!-- Subscription -->
<g id="node3" class="node"><title>Subscription</title>
<ellipse fill="none" stroke="black" cx="267" cy="-314" rx="55.3682" ry="18"/>
<text text-anchor="middle" x="267" y="-310.3" font-family="Times,serif" font-size="14.00">Subscription</text>
</g>
<!-- Subscription&#45;&gt;Course -->
<g id="edge2" class="edge"><title>Subscription&#45;&gt;Course</title>
<path fill="none" stroke="#05a98b" d="M245.633,-288.58C238.842,-280.82 231.349,-272.256 224.613,-264.558"/>
<polygon fill="#05a98b" stroke="#05a98b" points="245.803,-288.775 249.002,-299.264 249.096,-292.538 252.388,-296.301 252.388,-296.301 252.388,-296.301 249.096,-292.538 255.775,-293.337 245.803,-288.775 245.803,-288.775"/>
<polygon fill="#05a98b" stroke="#05a98b" points="224.255,-264.149 221.057,-253.66 220.963,-260.386 217.67,-256.623 217.67,-256.623 217.67,-256.623 220.963,-260.386 214.283,-259.586 224.255,-264.149 224.255,-264.149"/>
</g>
<!-- Task -->
<g id="node4" class="node"><title>Task</title>
<ellipse fill="none" stroke="black" cx="112" cy="-166" rx="27.4223" ry="18"/>
<text text-anchor="middle" x="112" y="-162.3" font-family="Times,serif" font-size="14.00">Task</text>
</g>
<!-- Comment -->
<g id="node5" class="node"><title>Comment</title>
<ellipse fill="none" stroke="black" cx="63" cy="-92" rx="46.2191" ry="18"/>
<text text-anchor="middle" x="63" y="-88.3" font-family="Times,serif" font-size="14.00">Comment</text>
</g>
<!-- RootComment -->
<g id="node12" class="node"><title>RootComment</title>
<ellipse fill="none" stroke="black" cx="63" cy="-18" rx="63.5411" ry="18"/>
<text text-anchor="middle" x="63" y="-14.3" font-family="Times,serif" font-size="14.00">RootComment</text>
</g>
<!-- Comment&#45;&gt;RootComment -->
<g id="edge3" class="edge"><title>Comment&#45;&gt;RootComment</title>
<path fill="none" stroke="#72ade6" d="M63,-65.7923C63,-59.5805 63,-52.8963 63,-46.5786"/>
<ellipse fill="none" stroke="#72ade6" cx="63" cy="-69.937" rx="4" ry="4"/>
<polygon fill="#72ade6" stroke="#72ade6" points="63.0001,-46.4407 67.5,-36.4406 63,-41.4407 63,-36.4407 63,-36.4407 63,-36.4407 63,-41.4407 58.5,-36.4407 63.0001,-46.4407 63.0001,-46.4407"/>
</g>
<!-- Vote -->
<g id="node6" class="node"><title>Vote</title>
<ellipse fill="none" stroke="black" cx="261" cy="-92" rx="27.4223" ry="18"/>
<text text-anchor="middle" x="261" y="-88.3" font-family="Times,serif" font-size="14.00">Vote</text>
</g>
<!-- Video -->
<g id="node7" class="node"><title>Video</title>
<ellipse fill="none" stroke="black" cx="236" cy="-166" rx="32.2457" ry="18"/>
<text text-anchor="middle" x="236" y="-162.3" font-family="Times,serif" font-size="14.00">Video</text>
</g>
<!-- Video&#45;&gt;Comment -->
<g id="edge6" class="edge"><title>Video&#45;&gt;Comment</title>
<path fill="none" stroke="#3c375c" d="M203.173,-151.338C174.666,-139.474 133.301,-122.258 102.892,-109.603"/>
<ellipse fill="none" stroke="#3c375c" cx="207.151" cy="-152.994" rx="4.00001" ry="4.00001"/>
<polygon fill="#3c375c" stroke="#3c375c" points="102.667,-109.509 95.1636,-101.512 98.0507,-107.588 93.4345,-105.666 93.4345,-105.666 93.4345,-105.666 98.0507,-107.588 91.7054,-109.821 102.667,-109.509 102.667,-109.509"/>
</g>
<!-- Video&#45;&gt;Vote -->
<g id="edge5" class="edge"><title>Video&#45;&gt;Vote</title>
<path fill="none" stroke="#ecb59d" d="M244.589,-140.262C246.922,-133.545 249.457,-126.245 251.82,-119.438"/>
<ellipse fill="none" stroke="#ecb59d" cx="243.237" cy="-144.158" rx="4.00001" ry="4.00001"/>
<polygon fill="#ecb59d" stroke="#ecb59d" points="251.838,-119.387 259.369,-111.417 253.478,-114.664 255.118,-109.941 255.118,-109.941 255.118,-109.941 253.478,-114.664 250.867,-108.464 251.838,-119.387 251.838,-119.387"/>
</g>
<!-- Image -->
<g id="node10" class="node"><title>Image</title>
<ellipse fill="none" stroke="black" cx="180" cy="-92" rx="33.2209" ry="18"/>
<text text-anchor="middle" x="180" y="-88.3" font-family="Times,serif" font-size="14.00">Image</text>
</g>
<!-- Video&#45;&gt;Image -->
<g id="edge4" class="edge"><title>Video&#45;&gt;Image</title>
<path fill="none" stroke="#cdd9ab" d="M227.163,-140.326C225.121,-136.031 222.732,-131.746 220,-128 215.858,-122.32 210.638,-116.92 205.35,-112.138"/>
<ellipse fill="none" stroke="#cdd9ab" cx="228.872" cy="-144.28" rx="4.00002" ry="4.00002"/>
<ellipse fill="#cdd9ab" stroke="#cdd9ab" cx="202.204" cy="-109.434" rx="4.00002" ry="4.00002"/>
</g>
<!-- Role -->
<g id="node8" class="node"><title>Role</title>
<ellipse fill="none" stroke="black" cx="350" cy="-497" rx="26.949" ry="18"/>
<text text-anchor="middle" x="350" y="-493.3" font-family="Times,serif" font-size="14.00">Role</text>
</g>
<!-- User -->
<g id="node9" class="node"><title>User</title>
<ellipse fill="none" stroke="black" cx="350" cy="-402" rx="26.949" ry="18"/>
<text text-anchor="middle" x="350" y="-398.3" font-family="Times,serif" font-size="14.00">User</text>
</g>
<!-- Role&#45;&gt;User -->
<g id="edge7" class="edge"><title>Role&#45;&gt;User</title>
<path fill="none" stroke="#b6d59c" d="M350,-468.77C350,-456.646 350,-442.399 350,-430.271"/>
<polygon fill="#b6d59c" stroke="#b6d59c" points="350,-468.942 345.5,-478.942 350,-473.942 350,-478.942 350,-478.942 350,-478.942 350,-473.942 354.5,-478.942 350,-468.942 350,-468.942"/>
<polygon fill="#b6d59c" stroke="#b6d59c" points="350,-430.264 354.5,-420.264 350,-425.264 350,-420.264 350,-420.264 350,-420.264 350,-425.264 345.5,-420.264 350,-430.264 350,-430.264"/>
</g>
<!-- User&#45;&gt;Subscription -->
<g id="edge12" class="edge"><title>User&#45;&gt;Subscription</title>
<path fill="none" stroke="#83956d" d="M330.046,-380.325C317.498,-367.324 301.314,-350.554 288.485,-337.261"/>
<ellipse fill="none" stroke="#83956d" cx="333.142" cy="-383.533" rx="4.00002" ry="4.00002"/>
<ellipse fill="#83956d" stroke="#83956d" cx="285.629" cy="-334.303" rx="4.00002" ry="4.00002"/>
</g>
<!-- User&#45;&gt;Task -->
<g id="edge10" class="edge"><title>User&#45;&gt;Task</title>
<path fill="none" stroke="#42b3fb" d="M313.669,-396.405C250.584,-387.598 125.016,-366.133 99,-332 68.2439,-291.648 86.0989,-228.465 100.14,-193.142"/>
<polygon fill="#42b3fb" stroke="#42b3fb" points="313.688,-396.407 322.988,-402.216 318.642,-397.082 323.596,-397.758 323.596,-397.758 323.596,-397.758 318.642,-397.082 324.204,-393.299 313.688,-396.407 313.688,-396.407"/>
<polygon fill="#42b3fb" stroke="#42b3fb" points="100.292,-192.777 108.29,-185.275 102.214,-188.161 104.136,-183.545 104.136,-183.545 104.136,-183.545 102.214,-188.161 99.9813,-181.815 100.292,-192.777 100.292,-192.777"/>
</g>
<!-- User&#45;&gt;Comment -->
<g id="edge11" class="edge"><title>User&#45;&gt;Comment</title>
<path fill="none" stroke="#2fbe6f" d="M314.54,-398.609C233.565,-392.179 42,-371.043 42,-315 42,-315 42,-315 42,-165 42,-149.436 46.5783,-132.709 51.4595,-119.299"/>
<ellipse fill="none" stroke="#2fbe6f" cx="318.949" cy="-398.948" rx="4" ry="4"/>
<polygon fill="#2fbe6f" stroke="#2fbe6f" points="51.5448,-119.08 59.3725,-111.4 53.3626,-114.422 55.1804,-109.764 55.1804,-109.764 55.1804,-109.764 53.3626,-114.422 50.9883,-108.128 51.5448,-119.08 51.5448,-119.08"/>
</g>
<!-- User&#45;&gt;Vote -->
<g id="edge8" class="edge"><title>User&#45;&gt;Vote</title>
<path fill="none" stroke="#d04d4b" d="M366.229,-378.278C376.556,-361.593 388,-337.931 388,-315 388,-315 388,-315 388,-165 388,-123.299 335.541,-105.46 298.054,-98.0357"/>
<ellipse fill="none" stroke="#d04d4b" cx="363.78" cy="-382.067" rx="4.00002" ry="4.00002"/>
<polygon fill="#d04d4b" stroke="#d04d4b" points="297.774,-97.9853 288.734,-91.7785 292.854,-97.096 287.933,-96.2068 287.933,-96.2068 287.933,-96.2068 292.854,-97.096 287.133,-100.635 297.774,-97.9853 297.774,-97.9853"/>
</g>
<!-- User&#45;&gt;Course -->
<g id="edge9" class="edge"><title>User&#45;&gt;Course</title>
<path fill="none" stroke="#368d67" d="M351.793,-375.449C352.052,-352.32 348.864,-318.522 331,-296 310.454,-270.097 275.304,-256.15 247.184,-248.789"/>
<ellipse fill="none" stroke="#368d67" cx="351.666" cy="-379.747" rx="4" ry="4"/>
<polygon fill="#368d67" stroke="#368d67" points="246.901,-248.721 238.243,-241.992 242.042,-247.543 237.183,-246.366 237.183,-246.366 237.183,-246.366 242.042,-247.543 236.123,-250.739 246.901,-248.721 246.901,-248.721"/>
</g>
<!-- Mailboxer::Message -->
<g id="node13" class="node"><title>Mailboxer::Message</title>
<ellipse fill="none" stroke="black" cx="500" cy="-314" rx="83.2649" ry="18"/>
<text text-anchor="middle" x="500" y="-310.3" font-family="Times,serif" font-size="14.00">Mailboxer::Message</text>
</g>
<!-- User&#45;&gt;Mailboxer::Message -->
<g id="edge13" class="edge"><title>User&#45;&gt;Mailboxer::Message</title>
<path fill="none" stroke="#53fdba" d="M377.099,-385.463C401.129,-371.686 436.441,-351.44 463.056,-336.181"/>
<ellipse fill="none" stroke="#53fdba" cx="373.389" cy="-387.59" rx="4.00002" ry="4.00002"/>
<polygon fill="#53fdba" stroke="#53fdba" points="463.399,-335.985 474.312,-334.915 467.736,-333.498 472.074,-331.011 472.074,-331.011 472.074,-331.011 467.736,-333.498 469.836,-327.107 463.399,-335.985 463.399,-335.985"/>
<text text-anchor="middle" x="464" y="-354.3" font-family="Times,serif" font-size="14.00">messages</text>
</g>
<!-- Mailboxer::Receipt -->
<g id="node14" class="node"><title>Mailboxer::Receipt</title>
<ellipse fill="none" stroke="black" cx="681" cy="-314" rx="78.9404" ry="18"/>
<text text-anchor="middle" x="681" y="-310.3" font-family="Times,serif" font-size="14.00">Mailboxer::Receipt</text>
</g>
<!-- User&#45;&gt;Mailboxer::Receipt -->
<g id="edge14" class="edge"><title>User&#45;&gt;Mailboxer::Receipt</title>
<path fill="none" stroke="#c02b81" d="M383.128,-393.225C412.357,-386.298 456.084,-375.776 494,-366 537.337,-354.826 586.116,-341.497 622.987,-331.269"/>
<ellipse fill="none" stroke="#c02b81" cx="379.178" cy="-394.159" rx="4.00001" ry="4.00001"/>
<polygon fill="#c02b81" stroke="#c02b81" points="623.421,-331.148 634.261,-332.806 628.238,-329.809 633.056,-328.47 633.056,-328.47 633.056,-328.47 628.238,-329.809 631.851,-324.135 623.421,-331.148 623.421,-331.148"/>
<text text-anchor="middle" x="571.5" y="-354.3" font-family="Times,serif" font-size="14.00">receipts</text>
</g>
<!-- Course&#45;&gt;Task -->
<g id="edge16" class="edge"><title>Course&#45;&gt;Task</title>
<path fill="none" stroke="#52d981" d="M178.884,-219.344C165.897,-209.18 150.092,-196.811 137.106,-186.648"/>
<ellipse fill="none" stroke="#52d981" cx="182.232" cy="-221.964" rx="4.00002" ry="4.00002"/>
<polygon fill="#52d981" stroke="#52d981" points="136.914,-186.498 131.812,-176.791 132.976,-183.416 129.038,-180.334 129.038,-180.334 129.038,-180.334 132.976,-183.416 126.265,-183.878 136.914,-186.498 136.914,-186.498"/>
</g>
<!-- Course&#45;&gt;Video -->
<g id="edge15" class="edge"><title>Course&#45;&gt;Video</title>
<path fill="none" stroke="#25d548" d="M214.754,-214.804C217.886,-207.755 221.321,-200.028 224.498,-192.879"/>
<ellipse fill="none" stroke="#25d548" cx="213.046" cy="-218.646" rx="4.00002" ry="4.00002"/>
<polygon fill="#25d548" stroke="#25d548" points="224.557,-192.747 232.731,-185.436 226.588,-188.178 228.618,-183.609 228.618,-183.609 228.618,-183.609 226.588,-188.178 224.506,-181.781 224.557,-192.747 224.557,-192.747"/>
</g>
<!-- Course&#45;&gt;Image -->
<g id="edge17" class="edge"><title>Course&#45;&gt;Image</title>
<path fill="none" stroke="#38aba6" d="M199.857,-213.8C195.474,-187.134 188.595,-145.285 184.193,-118.505"/>
<ellipse fill="none" stroke="#38aba6" cx="200.551" cy="-218.019" rx="4.00001" ry="4.00001"/>
<ellipse fill="#38aba6" stroke="#38aba6" cx="183.506" cy="-114.325" rx="4.00001" ry="4.00001"/>
</g>
</g>
</svg>
